<svg width="58" height="58" viewBox="0 0 58 58" fill="none" xmlns="http://www.w3.org/2000/svg">
<circle r="28.5" transform="matrix(1 0 0 -1 29 29)" stroke="white"/>
<path d="M34.0076 36.6392V38.9038C34.0076 39.1001 33.782 39.2085 33.6297 39.0884L20.4226 28.773C20.3104 28.6857 20.2196 28.574 20.1572 28.4463C20.0947 28.3186 20.0623 28.1783 20.0623 28.0361C20.0623 27.894 20.0947 27.7537 20.1572 27.626C20.2196 27.4983 20.3104 27.3866 20.4226 27.2993L33.6297 16.9839C33.785 16.8638 34.0076 16.9722 34.0076 17.1685V19.4331C34.0076 19.5767 33.9402 19.7144 33.8289 19.8023L23.282 28.0347L33.8289 36.27C33.9402 36.3579 34.0076 36.4956 34.0076 36.6392V36.6392Z" fill="white"/>
</svg>
