<svg width="58" height="58" viewBox="0 0 58 58" fill="none" xmlns="http://www.w3.org/2000/svg">
<circle cx="29" cy="29" r="29" fill="white"/>
<path d="M33.9454 20.4995V18.2348C33.9454 18.0386 33.7198 17.9302 33.5674 18.0503L20.3604 28.3657C20.2482 28.453 20.1574 28.5647 20.0949 28.6924C20.0325 28.8201 20 28.9604 20 29.1025C20 29.2447 20.0325 29.3849 20.0949 29.5126C20.1574 29.6403 20.2482 29.7521 20.3604 29.8393L33.5674 40.1548C33.7227 40.2749 33.9454 40.1665 33.9454 39.9702V37.7056C33.9454 37.562 33.878 37.4243 33.7666 37.3364L23.2198 29.104L33.7666 20.8686C33.878 20.7807 33.9454 20.6431 33.9454 20.4995Z" fill="black"/>
</svg>
