<svg width="58" height="58" viewBox="0 0 58 58" fill="none" xmlns="http://www.w3.org/2000/svg">
<circle cx="29" cy="29" r="29" transform="rotate(-180 29 29)" fill="white"/>
<path d="M23.9924 36.6392V38.9038C23.9924 39.1001 24.218 39.2085 24.3703 39.0884L37.5774 28.773C37.6896 28.6857 37.7804 28.574 37.8428 28.4463C37.9053 28.3186 37.9377 28.1783 37.9377 28.0361C37.9377 27.894 37.9053 27.7537 37.8428 27.626C37.7804 27.4983 37.6896 27.3866 37.5774 27.2993L24.3703 16.9839C24.215 16.8638 23.9924 16.9722 23.9924 17.1685V19.4331C23.9924 19.5767 24.0598 19.7144 24.1711 19.8023L34.718 28.0347L24.1711 36.27C24.0598 36.3579 23.9924 36.4956 23.9924 36.6392Z" fill="black"/>
</svg>
