<svg width="31" height="31" viewBox="0 0 31 31" fill="none" xmlns="http://www.w3.org/2000/svg">
<path d="M22.8717 15.8784C22.7518 15.7583 22.6095 15.6631 22.4528 15.5981C22.2961 15.5331 22.1281 15.4997 21.9585 15.4997C21.7888 15.4997 21.6209 15.5331 21.4642 15.5981C21.3075 15.6631 21.1651 15.7583 21.0453 15.8784L18.9864 17.9373C18.0318 17.6531 16.2506 17.0073 15.1217 15.8784C13.9928 14.7495 13.3469 12.9683 13.0628 12.0137L15.1217 9.95481C15.2417 9.83496 15.337 9.69261 15.402 9.53591C15.467 9.37922 15.5004 9.21124 15.5004 9.0416C15.5004 8.87196 15.467 8.70399 15.402 8.54729C15.337 8.39059 15.2417 8.24824 15.1217 8.12839L9.95502 2.96173C9.83517 2.84167 9.69282 2.74643 9.53613 2.68144C9.37943 2.61646 9.21145 2.58301 9.04181 2.58301C8.87217 2.58301 8.7042 2.61646 8.5475 2.68144C8.3908 2.74643 8.24846 2.84167 8.12861 2.96173L4.6256 6.46473C4.13477 6.95556 3.85835 7.62981 3.86869 8.31827C3.8984 10.1576 4.38535 16.5462 9.42027 21.5811C14.4552 26.616 20.8438 27.1017 22.6844 27.1327H22.7206C23.4026 27.1327 24.0471 26.864 24.5354 26.3758L28.0384 22.8728C28.1584 22.7529 28.2537 22.6106 28.3186 22.4539C28.3836 22.2972 28.4171 22.1292 28.4171 21.9596C28.4171 21.7899 28.3836 21.6219 28.3186 21.4652C28.2537 21.3085 28.1584 21.1662 28.0384 21.0464L22.8717 15.8784ZM22.7076 24.5481C21.0956 24.5209 15.5802 24.0882 11.2467 19.7534C6.89894 15.4056 6.47785 9.87085 6.45202 8.29114L9.04181 5.70135L12.3821 9.0416L10.7119 10.7117C10.5601 10.8634 10.4485 11.0506 10.3872 11.2563C10.3258 11.4619 10.3167 11.6796 10.3606 11.8897C10.3916 12.0383 11.1498 15.5606 13.294 17.7048C15.4381 19.849 18.9605 20.6072 19.1091 20.6382C19.319 20.6833 19.537 20.6749 19.7428 20.6138C19.9487 20.5526 20.1358 20.4406 20.2871 20.2881L21.9585 18.618L25.2987 21.9583L22.7076 24.5481Z" fill="black"/>
</svg>
